<svg xmlns="http://www.w3.org/2000/svg" viewBox="0 0 200 200" width="200" height="200">
  <rect width="200" height="200" fill="#f5f5f5" rx="8"/>
  <!-- brim -->
  <path d="M45,125 Q45,140 100,140 Q160,140 170,125 L160,118 Q150,130 100,130 Q55,130 50,118 Z" fill="#9e9e9e"/>
  <!-- crown -->
  <path d="M55,125 Q50,80 70,60 Q85,45 100,43 Q115,45 130,60 Q150,80 145,125 Z" fill="#bdbdbd"/>
  <!-- button on top -->
  <circle cx="100" cy="45" r="6" fill="#9e9e9e"/>
  <!-- seam panels -->
  <path d="M100,43 Q92,65 88,125" fill="none" stroke="#9e9e9e" stroke-width="1.5"/>
  <path d="M100,43 Q108,65 112,125" fill="none" stroke="#9e9e9e" stroke-width="1.5"/>
  <!-- sweatband line -->
  <path d="M55,125 Q80,120 100,120 Q120,120 145,125" fill="none" stroke="#9e9e9e" stroke-width="2"/>
</svg>
