<svg xmlns="http://www.w3.org/2000/svg" viewBox="0 0 200 200" width="200" height="200">
  <rect width="200" height="200" fill="#f5f5f5" rx="8"/>
  <!-- waistband -->
  <rect x="35" y="45" width="130" height="22" rx="6" fill="#9e9e9e"/>
  <!-- waistband stripe -->
  <rect x="35" y="53" width="130" height="6" rx="0" fill="#757575"/>
  <!-- body -->
  <path d="M35,67 L35,130 Q35,155 65,155 Q80,155 85,140 Q90,125 100,118 Q110,125 115,140 Q120,155 135,155 Q165,155 165,130 L165,67 Z" fill="#bdbdbd"/>
  <!-- center seam -->
  <line x1="100" y1="67" x2="100" y2="118" stroke="#9e9e9e" stroke-width="2"/>
  <!-- leg openings -->
  <path d="M35,130 Q35,155 65,155 Q80,155 85,140" fill="none" stroke="#9e9e9e" stroke-width="2"/>
  <path d="M165,130 Q165,155 135,155 Q120,155 115,140" fill="none" stroke="#9e9e9e" stroke-width="2"/>
</svg>
